<?xml version="1.0" encoding="utf-8"?>
<!-- Svg Vector Icons : http://www.onlinewebfonts.com/icon -->
<!DOCTYPE svg PUBLIC "-//W3C//DTD SVG 1.1//EN" "http://www.w3.org/Graphics/SVG/1.1/DTD/svg11.dtd">
<svg version="1.1" xmlns="http://www.w3.org/2000/svg" xmlns:xlink="http://www.w3.org/1999/xlink" x="0px" y="0px" viewBox="0 0 256 256" enable-background="new 0 0 256 256" xml:space="preserve">
<metadata> Svg Vector Icons : http://www.onlinewebfonts.com/icon </metadata>
<g><g><path fill="#000000" d="M39.2,69h14.8v147.5H39.2V69z"/><path fill="#000000" d="M39.2,69H246v14.8H39.2V69L39.2,69z"/><path fill="#000000" d="M231,69h15v147.5h-15V69z"/><path fill="#000000" d="M69,120.5c0,12.3,9.9,22.2,22.2,22.2s22.2-9.9,22.2-22.2c0-12.3-9.9-22.2-22.2-22.2S69,108.3,69,120.5L69,120.5z"/><path fill="#000000" d="M53.9,202.7l81.4-66.4h2.5l31.3,36.9l28-22.7l33.9,44.3v21.8H53.9V202.7z"/><path fill="#000000" d="M10,39.5h14.8V187H10V39.5z"/><path fill="#000000" d="M10,39.5h206.2v14.8H10V39.5z"/></g></g>
</svg>